<?xml version="1.0" standalone="no"?>
<!DOCTYPE svg PUBLIC "-//W3C//DTD SVG 1.1//EN" "http://www.w3.org/Graphics/SVG/1.1/DTD/svg11.dtd" >
<svg xmlns="http://www.w3.org/2000/svg" xmlns:xlink="http://www.w3.org/1999/xlink" version="1.1">
<metadata>
Created by FontForge 20170731 at Mon Jan 14 08:39:21 2019
 By Aleksey,,,
(c) 2009-2019 Jayvee Enaguas (HarvettFox96) &#60;harvettfox96@protonmail.com&#62;. Released under a libre/free public domain licence as Creative Commons Zero (CC0) 1.0. Applies worldwide countries including the Philippines, Spain, etc.
</metadata>
<defs>
<font id="EuropeanTeletextNuevo" horiz-adv-x="1200" >
  <font-face 
    font-family="European Teletext Nuevo"
    font-weight="400"
    font-stretch="normal"
    units-per-em="1600"
    panose-1="2 1 5 9 1 1 1 1 1 1"
    ascent="1280"
    descent="-320"
    x-height="700"
    cap-height="1000"
    bbox="0 -200 1200 1200"
    underline-thickness="100"
    underline-position="-350"
    unicode-range="U+0020-25A0"
  />
<missing-glyph 
d="M100 1100h1000v-1200h-1000v1200z" />
    <glyph glyph-name=".notdef" 
d="M100 1100h1000v-1200h-1000v1200z" />
    <glyph glyph-name=".null" horiz-adv-x="0" 
 />
    <glyph glyph-name="nonmarkingreturn" 
 />
    <glyph glyph-name="space" unicode=" " 
 />
    <glyph glyph-name="exclam" unicode="!" 
d="M400 1000h300v-600h-300v600zM400 200h300v-200h-300v200z" />
    <glyph glyph-name="quotedbl" unicode="&#x22;" 
d="M200 1000h300v-300h-100v-100h-200v100h100v200h-100v100zM700 1000h300v-300h-100v-100h-200v100h100v200h-100v100z" />
    <glyph glyph-name="numbersign" unicode="#" 
d="M700 600h-200v-400h200v400zM300 1000h200v-200h200v200h200v-200h200v-200h-200v-400h200v-200h-200v-200h-200v200h-200v-200h-200v200h-200v200h200v400h-200v200h200v200z" />
    <glyph glyph-name="dollar" unicode="$" 
d="M500 800h-200v-200h200v200zM900 400h-200v-200h200v200zM500 1200h200v-200h300v-100h100v-200h-200v100h-200v-200h300v-100h100v-400h-100v-100h-300v-200h-200v200h-300v100h-100v200h200v-100h200v200h-300v100h-100v400h100v100h300v200z" />
    <glyph glyph-name="percent" unicode="%" 
d="M300 900h-100v-200h100v200zM1000 300h-100v-200h100v200zM100 1000h300v-100h100v-200h-100v-100h-300v100h-100v200h100v100zM900 1000h200v-200h-100v-100h-100v-100h-100v-100h-100v-100h-100v-100h-100v-100h-100v-100h-100v-100h-200v200h100v100h100v100h100v100
h100v100h100v100h100v100h100v100h100v100zM800 400h300v-100h100v-200h-100v-100h-300v100h-100v200h100v100z" />
    <glyph glyph-name="ampersand" unicode="&#x26;" 
d="M600 900h-200v-200h200v200zM600 500h-200v-100h-100v-200h400v200h-100v100zM300 1000h400v-100h100v-200h-100v-200h100v-100h100v100h100v100h200v-100h-100v-100h-100v-200h200v-200h-200v100h-200v-100h-600v100h-100v300h100v100h100v200h-100v200h100v100z" />
    <glyph glyph-name="quotesingle" unicode="'" 
d="M500 1000h300v-300h-100v-100h-200v100h100v200h-100v100z" />
    <glyph glyph-name="parenleft" unicode="(" 
d="M500 1000h300v-200h-200v-100h-100v-400h100v-100h200v-200h-300v100h-100v200h-100v400h100v200h100v100z" />
    <glyph glyph-name="parenright" unicode=")" 
d="M400 1000h300v-100h100v-200h100v-400h-100v-200h-100v-100h-300v200h200v100h100v400h-100v100h-200v200z" />
    <glyph glyph-name="asterisk" unicode="*" 
d="M500 900h200v-300h100v100h100v100h200v-100h-100v-100h-100v-100h-100v-100h100v-100h100v-100h100v-100h-200v100h-100v100h-100v-300h-200v300h-100v-100h-100v-100h-200v100h100v100h100v100h100v100h-100v100h-100v100h-100v100h200v-100h100v-100h100v300z" />
    <glyph glyph-name="plus" unicode="+" 
d="M500 900h200v-300h300v-200h-300v-300h-200v300h-300v200h300v300z" />
    <glyph glyph-name="comma" unicode="," 
d="M500 300h300v-300h-100v-100h-200v100h100v200h-100v100z" />
    <glyph glyph-name="hyphen" unicode="-" 
d="M200 600h800v-200h-800v200z" />
    <glyph glyph-name="period" unicode="." 
d="M500 300h200v-300h-200v300z" />
    <glyph glyph-name="slash" unicode="/" 
d="M900 1000h200v-200h-100v-100h-100v-100h-100v-100h-100v-100h-100v-100h-100v-100h-100v-100h-100v-100h-200v200h100v100h100v100h100v100h100v100h100v100h100v100h100v100h100v100z" />
    <glyph glyph-name="zero" unicode="0" 
d="M800 900h-300v-800h300v800zM300 1000h700v-100h100v-800h-100v-100h-700v100h-100v800h100v100z" />
    <glyph glyph-name="one" unicode="1" 
d="M500 1000h300v-1000h-300v600h-200v200h100v100h100v100z" />
    <glyph glyph-name="two" unicode="2" 
d="M300 1000h700v-100h100v-300h-100v-100h-100v-100h-100v-100h-100v-100h400v-200h-900v100h100v100h100v100h100v100h100v100h100v100h100v200h-400v-100h-200v200h100v100z" />
    <glyph glyph-name="three" unicode="3" 
d="M200 1000h900v-300h-100v-100h-100v-100h100v-100h100v-300h-100v-100h-700v100h-100v200h200v-100h400v200h-100v100h-100v100h100v100h100v100h-600v200z" />
    <glyph glyph-name="four" unicode="4" 
d="M800 1000h300v-100h-100v-100h-100v-100h-100v-100h-100v-100h-100v-100h-100v-100h300v200h300v-500h-300v100h-600v300h100v100h100v100h100v100h100v100h100v100h100v100z" />
    <glyph glyph-name="five" unicode="5" 
d="M200 1000h900v-200h-700v-200h600v-100h100v-400h-100v-100h-700v100h-100v200h200v-100h500v200h-700v600z" />
    <glyph glyph-name="six" unicode="6" 
d="M900 400h-400v-200h400v200zM600 1000h300v-100h-100v-100h-100v-100h-100v-100h400v-100h100v-400h-100v-100h-700v100h-100v400h100v200h100v100h100v100h100v100z" />
    <glyph glyph-name="seven" unicode="7" 
d="M200 1000h900v-300h-100v-100h-100v-100h-100v-100h-100v-200h-100v-200h-300v200h100v200h100v100h100v100h100v100h100v100h-600v200z" />
    <glyph glyph-name="eight" unicode="8" 
d="M900 800h-400v-200h400v200zM900 400h-400v-200h400v200zM300 1000h700v-100h100v-300h-100v-200h100v-300h-100v-100h-700v100h-100v300h100v200h-100v300h100v100z" />
    <glyph glyph-name="nine" unicode="9" 
d="M800 800h-400v-200h400v200zM300 1000h700v-100h100v-400h-100v-200h-100v-100h-100v-100h-100v-100h-300v100h100v100h100v100h100v100h-400v100h-100v400h100v100z" />
    <glyph glyph-name="colon" unicode=":" 
d="M500 700h200v-200h-200v200zM500 200h200v-200h-200v200z" />
    <glyph glyph-name="semicolon" unicode=";" 
d="M500 700h200v-200h-200v200zM500 400h200v-200h-100v-100h-100v-100h-100v200h100v200z" />
    <glyph glyph-name="less" unicode="&#x3c;" 
d="M800 900h300v-100h-100v-100h-200v-100h-200v-100h-100v-100h100v-100h200v-100h200v-100h100v-100h-300v100h-200v100h-200v100h-100v100h-100v100h100v100h100v100h200v100h200v100z" />
    <glyph glyph-name="equal" unicode="=" 
d="M200 800h800v-200h-800v200zM200 400h800v-200h-800v200z" />
    <glyph glyph-name="greater" unicode="&#x3e;" 
d="M100 900h300v-100h200v-100h200v-100h100v-100h100v-100h-100v-100h-100v-100h-200v-100h-200v-100h-300v100h100v100h200v100h200v100h100v100h-100v100h-200v100h-200v100h-100v100z" />
    <glyph glyph-name="question" unicode="?" 
d="M300 1000h600v-100h100v-300h-100v-100h-100v-100h-100v-100h-200v200h100v100h200v200h-400v-200h-200v300h100v100zM500 200h200v-200h-200v200z" />
    <glyph glyph-name="at" unicode="@" 
d="M900 600h-200v-200h200v200zM300 1100h700v-100h100v-700h-100v-100h-400v100h-100v400h100v100h300v100h-500v-100h-100v-600h100v-100h600v-200h-700v100h-100v100h-100v800h100v100h100v100z" />
    <glyph glyph-name="A" unicode="A" 
d="M700 800h-200v-100h-100v-100h-100v-100h600v100h-100v100h-100v100zM400 1000h400v-100h100v-100h100v-100h100v-700h-200v300h-600v-300h-200v700h100v100h100v100h100v100z" />
    <glyph glyph-name="B" unicode="B" 
d="M900 800h-500v-200h500v200zM900 400h-500v-200h500v200zM200 1000h800v-100h100v-300h-100v-200h100v-300h-100v-100h-800v1000z" />
    <glyph glyph-name="C" unicode="C" 
d="M400 1000h500v-100h100v-100h100v-200h-200v100h-100v100h-300v-100h-100v-400h100v-100h300v100h100v100h200v-200h-100v-100h-100v-100h-500v100h-100v100h-100v600h100v100h100v100z" />
    <glyph glyph-name="D" unicode="D" 
d="M800 800h-400v-600h400v100h100v400h-100v100zM200 1000h700v-100h100v-100h100v-600h-100v-100h-100v-100h-700v1000z" />
    <glyph glyph-name="E" unicode="E" 
d="M200 1000h900v-200h-700v-200h500v-200h-500v-200h700v-200h-900v1000z" />
    <glyph glyph-name="F" unicode="F" 
d="M200 1000h900v-200h-700v-200h400v-200h-400v-400h-200v1000z" />
    <glyph glyph-name="G" unicode="G" 
d="M300 1000h700v-100h100v-200h-200v100h-500v-600h500v100h-300v200h500v-400h-100v-100h-700v100h-100v800h100v100z" />
    <glyph glyph-name="H" unicode="H" 
d="M100 1000h200v-400h600v400h200v-1000h-200v400h-600v-400h-200v1000z" />
    <glyph glyph-name="I" unicode="I" 
d="M200 1000h800v-200h-300v-600h300v-200h-800v200h300v600h-300v200z" />
    <glyph glyph-name="J" unicode="J" 
d="M900 1000h200v-800h-100v-100h-100v-100h-500v100h-100v100h-100v200h200v-100h100v-100h300v100h100v700z" />
    <glyph glyph-name="K" unicode="K" 
d="M200 1000h200v-400h100v100h100v100h100v100h100v100h300v-100h-100v-100h-100v-100h-100v-100h-100v-200h100v-100h100v-100h100v-100h100v-100h-300v100h-100v100h-100v100h-100v100h-100v-400h-200v1000z" />
    <glyph glyph-name="L" unicode="L" 
d="M200 1000h200v-800h700v-200h-900v1000z" />
    <glyph glyph-name="M" unicode="M" 
d="M100 1000h200v-100h100v-100h100v-100h200v100h100v100h100v100h200v-1000h-200v600h-100v-100h-100v-100h-200v100h-100v100h-100v-600h-200v1000z" />
    <glyph glyph-name="N" unicode="N" 
d="M100 1000h300v-100h100v-100h100v-100h100v-100h100v-100h100v500h200v-1000h-200v200h-100v100h-100v100h-100v100h-100v100h-100v100h-100v-700h-200v1000z" />
    <glyph glyph-name="O" unicode="O" 
d="M800 800h-300v-100h-100v-400h100v-100h300v100h100v400h-100v100zM400 1000h500v-100h100v-100h100v-600h-100v-100h-100v-100h-500v100h-100v100h-100v600h100v100h100v100z" />
    <glyph glyph-name="P" unicode="P" 
d="M900 800h-500v-200h500v200zM200 1000h800v-100h100v-400h-100v-100h-600v-400h-200v1000z" />
    <glyph glyph-name="Q" unicode="Q" 
d="M800 800h-300v-100h-100v-400h100v-100h100v100h100v-100h100v100h100v400h-100v100zM400 1000h500v-100h100v-100h100v-600h-100v-100h-100v-100h100v-100h-300v100h-300v100h-100v100h-100v600h100v100h100v100z" />
    <glyph glyph-name="R" unicode="R" 
d="M900 800h-500v-200h500v200zM200 1000h800v-100h100v-400h-100v-100h100v-400h-200v300h-100v100h-400v-400h-200v1000z" />
    <glyph glyph-name="S" unicode="S" 
d="M300 1000h700v-200h-600v-200h600v-100h100v-400h-100v-100h-700v200h600v200h-600v100h-100v400h100v100z" />
    <glyph glyph-name="T" unicode="T" 
d="M100 1000h1000v-200h-400v-800h-200v800h-400v200z" />
    <glyph glyph-name="U" unicode="U" 
d="M400 1000v-700h100v-100h300v100h100v700h200v-800h-100v-100h-100v-100h-500v100h-100v100h-100v800h200z" />
    <glyph glyph-name="V" unicode="V" 
d="M100 1000h200v-200h100v-200h100v-300h200v300h100v200h100v200h200v-200h-100v-200h-100v-300h-100v-200h-100v-100h-200v100h-100v200h-100v300h-100v200h-100v200z" />
    <glyph glyph-name="W" unicode="W" 
d="M100 1000h200v-700h100v100h100v300h200v-300h100v-100h100v700h200v-800h-100v-200h-200v100h-100v100h-200v-100h-100v-100h-200v200h-100v800z" />
    <glyph glyph-name="X" unicode="X" 
d="M200 1000h200v-100h100v-100h200v100h100v100h200v-200h-100v-100h-100v-100h-100v-200h100v-100h100v-100h100v-200h-200v100h-100v100h-200v-100h-100v-100h-200v200h100v100h100v100h100v200h-100v100h-100v100h-100v200z" />
    <glyph glyph-name="Y" unicode="Y" 
d="M100 1000h200v-100h100v-100h100v-100h200v100h100v100h100v100h200v-200h-100v-100h-100v-100h-100v-100h-100v-500h-200v500h-100v100h-100v100h-100v100h-100v200z" />
    <glyph glyph-name="Z" unicode="Z" 
d="M200 1000h800v-200h-100v-100h-100v-100h-100v-200h-100v-200h400v-200h-800v200h100v100h100v200h100v200h100v100h-400v200z" />
    <glyph glyph-name="bracketleft" unicode="[" 
d="M300 1000h500v-200h-300v-600h300v-200h-500v1000z" />
    <glyph glyph-name="backslash" unicode="\" 
d="M100 1000h200v-100h100v-100h100v-100h100v-100h100v-100h100v-100h100v-100h100v-100h100v-200h-200v100h-100v100h-100v100h-100v100h-100v100h-100v100h-100v100h-100v100h-100v200z" />
    <glyph glyph-name="bracketright" unicode="]" 
d="M400 1000h500v-1000h-500v200h300v600h-300v200z" />
    <glyph glyph-name="asciicircum" unicode="^" 
d="M500 1100h200v-100h100v-100h100v-100h100v-100h100v-100h-300v100h-100v100h-200v-100h-100v-100h-300v100h100v100h100v100h100v100h100v100z" />
    <glyph glyph-name="underscore" unicode="_" 
d="M100 0h1000v-200h-1000v200z" />
    <glyph glyph-name="grave" unicode="`" 
d="M400 1000h200v-100h100v-100h-200v100h-100v100z" />
    <glyph glyph-name="a" unicode="a" 
d="M800 300h-500v-100h100v-100h300v100h100v100zM200 700h700v-100h100v-400h100v-200h-900v100h-100v200h100v100h600v100h-100v100h-300v-100h-300v100h100v100z" />
    <glyph glyph-name="b" unicode="b" 
d="M800 500h-300v-100h-100v-100h100v-100h300v100h100v100h-100v100zM200 1000h200v-400h100v100h400v-100h100v-100h100v-300h-100v-100h-100v-100h-400v100h-100v-100h-200v1000z" />
    <glyph glyph-name="c" unicode="c" 
d="M400 700h500v-100h100v-100h100v-100h-200v100h-400v-100h-100v-100h100v-100h400v100h200v-100h-100v-100h-100v-100h-500v100h-100v100h-100v300h100v100h100v100z" />
    <glyph glyph-name="d" unicode="d" 
d="M800 500h-300v-100h-100v-100h100v-100h300v100h100v100h-100v100zM900 1000h200v-1000h-200v100h-100v-100h-400v100h-100v100h-100v300h100v100h100v100h400v-100h100v400z" />
    <glyph glyph-name="e" unicode="e" 
d="M800 600h-300v-100h-100v-100h500v100h-100v100zM300 700h700v-100h100v-300h-700v-100h100v-100h400v100h200v-100h-100v-100h-700v100h-100v500h100v100z" />
    <glyph glyph-name="f" unicode="f" 
d="M600 1000h400v-200h-300v-100h-100v-100h300v-200h-300v-400h-200v400h-200v200h200v200h100v100h100v100z" />
    <glyph glyph-name="g" unicode="g" 
d="M700 600h-200v-100h-100v-100h100v-100h200v100h100v100h-100v100zM300 700h500v-100h100v100h200v-700h-100v-100h-700v100h-100v100h200v-100h400v100h100v200h-100v-100h-500v100h-100v300h100v100z" />
    <glyph glyph-name="h" unicode="h" 
d="M200 1000h200v-400h100v100h500v-100h100v-600h-200v500h-400v-100h-100v-400h-200v1000z" />
    <glyph glyph-name="i" unicode="i" 
d="M400 1000h300v-200h-300v200zM400 700h300v-500h200v-200h-600v200h200v300h-100v200z" />
    <glyph glyph-name="j" unicode="j" 
d="M600 1000h300v-200h-300v200zM600 700h300v-800h-100v-100h-500v100h-100v200h200v-100h300v400h-100v300z" />
    <glyph glyph-name="k" unicode="k" 
d="M200 1000h200v-600h200v100h100v100h100v100h300v-100h-100v-100h-100v-100h-100v-100h100v-100h100v-100h100v-100h-300v100h-100v100h-300v-200h-200v1000z" />
    <glyph glyph-name="l" unicode="l" 
d="M300 1000h400v-800h300v-200h-800v200h300v600h-200v200z" />
    <glyph glyph-name="m" unicode="m" 
d="M100 700h200v-100h100v100h200v-100h100v100h300v-100h100v-600h-200v500h-200v-500h-200v500h-200v-500h-200v700z" />
    <glyph glyph-name="n" unicode="n" 
d="M200 700h200v-100h100v100h500v-100h100v-600h-200v500h-400v-100h-100v-400h-200v700z" />
    <glyph glyph-name="o" unicode="o" 
d="M900 500h-500v-300h500v300zM300 700h700v-100h100v-500h-100v-100h-700v100h-100v500h100v100z" />
    <glyph glyph-name="p" unicode="p" 
d="M900 500h-400v-200h400v200zM200 700h200v-100h100v100h500v-100h100v-400h-100v-100h-500v100h-100v-400h-200v900z" />
    <glyph glyph-name="q" unicode="q" 
d="M800 500h-400v-200h400v200zM900 700h200v-900h-200v400h-100v-100h-500v100h-100v400h100v100h500v-100h100v100z" />
    <glyph glyph-name="r" unicode="r" 
d="M200 700h200v-200h100v100h100v100h400v-200h-400v-100h-100v-100h-100v-300h-200v700z" />
    <glyph glyph-name="s" unicode="s" 
d="M300 700h600v-100h100v-100h-300v100h-200v-100h-100v-100h600v-100h100v-200h-100v-100h-700v100h-100v100h300v-100h300v100h100v100h-600v100h-100v200h100v100z" />
    <glyph glyph-name="t" unicode="t" 
d="M400 1000h200v-300h300v-200h-300v-200h100v-100h300v-200h-400v100h-100v100h-100v300h-200v200h200v300z" />
    <glyph glyph-name="u" unicode="u" 
d="M200 700h200v-500h400v100h100v400h200v-700h-200v100h-100v-100h-500v100h-100v600z" />
    <glyph glyph-name="v" unicode="v" 
d="M100 700h200v-200h100v-100h100v-100h200v100h100v100h100v200h200v-300h-100v-100h-100v-100h-100v-100h-100v-100h-200v100h-100v100h-100v100h-100v100h-100v300z" />
    <glyph glyph-name="w" unicode="w" 
d="M100 700h200v-600h100v100h100v300h200v-300h100v-100h100v600h200v-500h-100v-200h-300v100h-200v-100h-300v200h-100v500z" />
    <glyph glyph-name="x" unicode="x" 
d="M100 700h300v-100h100v-100h200v100h100v100h300v-100h-100v-100h-100v-100h-100v-100h100v-100h100v-100h100v-100h-300v100h-100v100h-200v-100h-100v-100h-300v100h100v100h100v100h100v100h-100v100h-100v100h-100v100z" />
    <glyph glyph-name="y" unicode="y" 
d="M200 700h200v-100h100v-100h100v-100h100v100h100v100h100v100h200v-200h-100v-100h-100v-100h-100v-100h-100v-100h-100v-100h-100v-100h-100v-100h-300v100h100v100h100v100h100v100h100v100h-100v100h-100v100h-100v200z" />
    <glyph glyph-name="z" unicode="z" 
d="M200 700h900v-100h-100v-100h-100v-100h-100v-100h-100v-100h400v-200h-900v100h100v100h100v100h100v100h100v100h-400v200z" />
    <glyph glyph-name="braceleft" unicode="{" 
d="M600 1000h300v-200h-200v-200h-100v-200h100v-200h200v-200h-300v100h-100v300h-200v200h200v300h100v100z" />
    <glyph glyph-name="bar" unicode="|" 
d="M500 1000h200v-1000h-200v1000z" />
    <glyph glyph-name="braceright" unicode="}" 
d="M300 1000h300v-100h100v-300h200v-200h-200v-300h-100v-100h-300v200h200v200h100v200h-100v200h-200v200z" />
    <glyph glyph-name="asciitilde" unicode="~" 
d="M300 1000h300v-100h100v-100h100v100h100v100h100v-200h-100v-100h-300v100h-100v100h-100v-100h-100v-100h-100v200h100v100z" />
    <glyph glyph-name="uni00A0" unicode="&#xa0;" 
 />
    <glyph glyph-name="exclamdown" unicode="&#xa1;" 
d="M400 1100h300v-200h-300v200zM400 700h300v-700h-300v700z" />
    <glyph glyph-name="cent" unicode="&#xa2;" 
d="M700 800h-200v-300h200v300zM700 1200h200v-200h200v-200h-200v-300h200v-200h-200v-200h-200v200h-300v100h-100v100h-100v300h100v100h100v100h300v200z" />
    <glyph glyph-name="sterling" unicode="&#xa3;" 
d="M400 1000h600v-100h100v-200h-200v100h-400v-200h300v-200h-200v-200h300v100h200v-200h-100v-100h-400v100h-100v-100h-300v200h200v200h-200v200h100v300h100v100z" />
    <glyph glyph-name="currency" unicode="&#xa4;" 
d="M800 600h-300v-200h300v200zM200 1000h200v-100h100v-100h300v100h100v100h200v-200h-100v-200h100v-200h-100v-200h100v-200h-200v100h-100v100h-300v-100h-100v-100h-200v200h100v200h-100v200h100v200h-100v200z" />
    <glyph glyph-name="yen" unicode="&#xa5;" 
d="M100 1000h200v-100h100v-100h100v-100h200v100h100v100h100v100h200v-200h-100v-100h-100v-100h-100v-100h-100v-100h300v-100h-300v-100h300v-100h-300v-100h-200v100h-300v100h300v100h-300v100h300v100h-100v100h-100v100h-100v100h-100v200z" />
    <glyph glyph-name="brokenbar" unicode="&#xa6;" 
d="M500 1000h200v-400h-200v400zM500 400h200v-400h-200v400z" />
    <glyph glyph-name="section" unicode="&#xa7;" 
d="M700 600h-200v-100h-100v-100h100v-100h200v100h100v100h-100v100zM300 1100h600v-100h100v-200h-200v100h-100v100h-200v-100h-100v-100h100v-100h400v-100h100v-300h-100v-100h100v-300h-100v-100h-600v100h-100v200h200v-100h100v-100h200v100h100v100h-100v100h-400
v100h-100v300h100v100h-100v300h100v100z" />
    <glyph glyph-name="dieresis" unicode="&#xa8;" 
d="M300 1000h200v-200h-200v200zM700 1000h200v-200h-200v200z" />
    <glyph glyph-name="copyright" unicode="&#xa9;" 
d="M500 800h200v-100h-100v-400h100v-100h-200v100h-100v400h100v100zM700 700h100v-100h-100v100zM700 400h100v-100h-100v100zM800 900h-400v-100h-100v-600h100v-100h400v100h100v600h-100v100zM300 1100h600v-100h100v-100h100v-800h-100v-100h-100v-100h-600v100h-100
v100h-100v800h100v100h100v100z" />
    <glyph glyph-name="ordfeminine" unicode="&#xaa;" 
d="M700 900h-400v-200h400v200zM200 1100h700v-400h200v-200h-900v100h-100v400h100v100zM100 400h1000v-200h-1000v200z" />
    <glyph glyph-name="guillemotleft" unicode="&#xab;" 
d="M400 900h300v-100h-100v-100h-100v-100h-100v-200h100v-100h100v-100h100v-100h-300v100h-100v100h-100v100h-100v200h100v100h100v100h100v100zM900 900h300v-100h-100v-100h-100v-100h-100v-200h100v-100h100v-100h100v-100h-300v100h-100v100h-100v100h-100v200h100
v100h100v100h100v100z" />
    <glyph glyph-name="logicalnot" unicode="&#xac;" 
d="M200 600h800v-500h-200v300h-600v200z" />
    <glyph glyph-name="registered" unicode="&#xae;" 
d="M400 800h300v-100h-100v-200h100v-100h100v-200h-100v100h-100v-100h-200v600zM700 700h100v-200h-100v200zM300 1100h600v-100h100v-100h100v-800h-100v-100h-100v-100h-600v100h-100v100h-100v800h100v100h100v100zM800 900h-400v-100h-100v-600h100v-100h400v100h100
v600h-100v100z" />
    <glyph glyph-name="degree" unicode="&#xb0;" 
d="M700 1000h-200v-200h200v200zM400 1100h400v-100h100v-200h-100v-100h-400v100h-100v200h100v100z" />
    <glyph glyph-name="plusminus" unicode="&#xb1;" 
d="M500 1100h200v-300h300v-200h-300v-300h-200v300h-300v200h300v300zM200 100h800v-200h-800v200z" />
    <glyph glyph-name="uni00B2" unicode="&#xb2;" 
d="M300 1100h500v-100h100v-200h-100v-100h-300v-100h400v-200h-600v300h100v100h300v100h-400v200z" />
    <glyph glyph-name="uni00B3" unicode="&#xb3;" 
d="M300 1100h600v-200h-100v-100h-100v-100h-200v100h100v100h-300v200zM700 700h200v-200h-100v-100h-500v200h400v100z" />
    <glyph glyph-name="acute" unicode="&#xb4;" 
d="M600 1000h200v-100h-100v-100h-200v100h100v100z" />
    <glyph glyph-name="mu" unicode="&#xb5;" 
d="M300 700h200v-400h400v400h200v-500h-100v-100h-500v-200h-100v-100h-200v200h100v700z" />
    <glyph glyph-name="paragraph" unicode="&#xb6;" 
d="M300 1000h800v-1000h-200v800h-200v-800h-200v600h-200v100h-100v200h100v100z" />
    <glyph glyph-name="periodcentered" unicode="&#xb7;" 
d="M500 700h200v-300h-200v300z" />
    <glyph glyph-name="cedilla" unicode="&#xb8;" 
d="M500 100h200v-300h-400v200h200v100z" />
    <glyph glyph-name="uni00B9" unicode="&#xb9;" 
d="M500 1100h200v-600h-200v300h-200v100h100v100h100v100z" />
    <glyph glyph-name="ordmasculine" unicode="&#xba;" 
d="M800 900h-500v-200h500v200zM200 1100h700v-100h100v-400h-100v-100h-700v100h-100v400h100v100zM100 400h900v-200h-900v200z" />
    <glyph glyph-name="guillemotright" unicode="&#xbb;" 
d="M100 900h300v-100h100v-100h100v-100h100v-200h-100v-100h-100v-100h-100v-100h-300v100h100v100h100v100h100v200h-100v100h-100v100h-100v100zM600 900h300v-100h100v-100h100v-100h100v-200h-100v-100h-100v-100h-100v-100h-300v100h100v100h100v100h100v200h-100v100
h-100v100h-100v100z" />
    <glyph glyph-name="onequarter" unicode="&#xbc;" 
d="M200 1000h200v-500h-200v300h-100v100h100v100zM900 1000h200v-200h-100v-100h-100v-100h-100v-100h-100v-100h-100v-100h-100v-100h-100v-100h-100v-100h-200v200h100v100h100v100h100v100h100v100h100v100h100v100h100v100h100v100zM800 500h200v-100h-100v-100h-100
v-100h100v100h200v-300h-200v100h-300v200h100v100h100v100z" />
    <glyph glyph-name="onehalf" unicode="&#xbd;" 
d="M200 1000h200v-500h-200v300h-100v100h100v100zM900 1000h200v-200h-100v-100h-100v-100h-100v-100h200v-100h100v-100h-100v-100h-200v-100h300v-100h-500v200h100v100h200v100h-300v-100h-100v-100h-100v-100h-100v-100h-200v200h100v100h100v100h100v100h100v100h100
v100h100v100h100v100h100v100z" />
    <glyph glyph-name="threequarters" unicode="&#xbe;" 
d="M0 1000h500v-100h-100v-100h100v-200h-100v-100h-400v100h300v100h-200v100h100v100h-200v100zM900 1000h200v-200h-100v-100h-100v-100h-100v-100h-100v-100h-100v-100h-100v-100h-100v-100h-100v-100h-200v200h100v100h100v100h100v100h100v100h100v100h100v100h100
v100h100v100zM800 500h200v-100h-100v-100h-100v-100h100v100h200v-300h-200v100h-300v200h100v100h100v100z" />
    <glyph glyph-name="questiondown" unicode="&#xbf;" 
d="M900 0h-600v100h-100v300h100v100h100v100h100v100h200v-200h-100v-100h-200v-200h400v200h200v-300h-100v-100zM700 800h-200v200h200v-200z" />
    <glyph glyph-name="Agrave" unicode="&#xc0;" 
d="M800 700h-400v-100h-100v-100h600v100h-100v100zM300 1200h300v-100h100v-100h-300v100h-100v100zM300 900h600v-100h100v-100h100v-700h-200v300h-600v-300h-200v700h100v100h100v100z" />
    <glyph glyph-name="Aacute" unicode="&#xc1;" 
d="M800 700h-400v-100h-100v-100h600v100h-100v100zM600 1200h300v-100h-100v-100h-300v100h100v100zM300 900h600v-100h100v-100h100v-700h-200v300h-600v-300h-200v700h100v100h100v100z" />
    <glyph glyph-name="Acircumflex" unicode="&#xc2;" 
d="M800 700h-400v-100h-100v-100h600v100h-100v100zM400 1200h400v-100h100v-100h-200v100h-200v-100h-200v100h100v100zM300 900h600v-100h100v-100h100v-700h-200v300h-600v-300h-200v700h100v100h100v100z" />
    <glyph glyph-name="Atilde" unicode="&#xc3;" 
d="M800 700h-400v-100h-100v-100h600v100h-100v100zM400 1200h300v-100h100v100h200v-100h-100v-100h-300v100h-100v-100h-200v100h100v100zM300 900h600v-100h100v-100h100v-700h-200v300h-600v-300h-200v700h100v100h100v100z" />
    <glyph glyph-name="Adieresis" unicode="&#xc4;" 
d="M700 800h-200v-100h-100v-100h-100v-100h600v100h-100v100h-100v100zM200 1200h200v-200h-200v200zM800 1200h200v-200h-200v200zM400 1000h400v-100h100v-100h100v-100h100v-700h-200v300h-600v-300h-200v700h100v100h100v100h100v100z" />
    <glyph glyph-name="Aring" unicode="&#xc5;" 
d="M700 1100h-200v-200h200v200zM800 700h-400v-100h-100v-100h600v100h-100v100zM400 1200h400v-100h100v-200h-100v-100h200v-100h100v-700h-200v300h-600v-300h-200v700h100v100h200v100h-100v200h100v100z" />
    <glyph glyph-name="AE" unicode="&#xc6;" 
d="M600 800h-200v-100h-100v-200h300v300zM300 1000h800v-200h-300v-200h300v-200h-300v-200h300v-200h-500v300h-300v-300h-200v800h100v100h100v100z" />
    <glyph glyph-name="Ccedilla" unicode="&#xc7;" 
d="M400 1000h500v-100h100v-100h100v-200h-200v100h-100v100h-300v-100h-100v-400h100v-100h300v100h100v100h200v-200h-100v-100h-100v-100h-200v-100h-100v-100h-200v100h100v100h-100v100h-100v100h-100v600h100v100h100v100z" />
    <glyph glyph-name="Egrave" unicode="&#xc8;" 
d="M400 1200h300v-100h100v-100h-300v100h-100v100zM200 900h900v-200h-700v-200h500v-100h-500v-200h700v-200h-900v900z" />
    <glyph glyph-name="Eacute" unicode="&#xc9;" 
d="M600 1200h300v-100h-100v-100h-300v100h100v100zM200 900h900v-200h-700v-200h500v-100h-500v-200h700v-200h-900v900z" />
    <glyph glyph-name="Ecircumflex" unicode="&#xca;" 
d="M500 1200h300v-100h100v-100h-200v100h-100v-100h-200v100h100v100zM200 900h900v-200h-700v-200h500v-100h-500v-200h700v-200h-900v900z" />
    <glyph glyph-name="Edieresis" unicode="&#xcb;" 
d="M300 1200h200v-200h-200v200zM800 1200h200v-200h-200v200zM200 900h900v-200h-700v-200h500v-100h-500v-200h700v-200h-900v900z" />
    <glyph glyph-name="Igrave" unicode="&#xcc;" 
d="M400 1200h300v-100h100v-100h-300v100h-100v100zM200 900h800v-200h-300v-500h300v-200h-800v200h300v500h-300v200z" />
    <glyph glyph-name="Iacute" unicode="&#xcd;" 
d="M500 1200h300v-100h-100v-100h-300v100h100v100zM200 900h800v-200h-300v-500h300v-200h-800v200h300v500h-300v200z" />
    <glyph glyph-name="Icircumflex" unicode="&#xce;" 
d="M400 1200h400v-100h100v-100h-200v100h-200v-100h-200v100h100v100zM200 900h800v-200h-300v-500h300v-200h-800v200h300v500h-300v200z" />
    <glyph glyph-name="Idieresis" unicode="&#xcf;" 
d="M300 1200h200v-200h-200v200zM700 1200h200v-200h-200v200zM200 900h800v-200h-300v-500h300v-200h-800v200h300v500h-300v200z" />
    <glyph glyph-name="Eth" unicode="&#xd0;" 
d="M800 800h-400v-200h200v-200h-200v-200h400v100h100v400h-100v100zM200 1000h700v-100h100v-100h100v-600h-100v-100h-100v-100h-700v400h-100v200h100v400z" />
    <glyph glyph-name="Ntilde" unicode="&#xd1;" 
d="M400 1200h300v-100h100v100h200v-100h-100v-100h-300v100h-100v-100h-200v100h100v100zM100 900h300v-100h100v-100h100v-100h100v-100h100v-100h100v500h200v-900h-200v100h-100v100h-100v100h-100v100h-100v100h-100v100h-100v-600h-200v900z" />
    <glyph glyph-name="Ograve" unicode="&#xd2;" 
d="M800 700h-300v-100h-100v-300h100v-100h300v100h100v300h-100v100zM400 1200h300v-100h100v-100h-300v100h-100v100zM400 900h500v-100h100v-100h100v-500h-100v-100h-100v-100h-500v100h-100v100h-100v500h100v100h100v100z" />
    <glyph glyph-name="Oacute" unicode="&#xd3;" 
d="M800 700h-300v-100h-100v-300h100v-100h300v100h100v300h-100v100zM600 1200h300v-100h-100v-100h-300v100h100v100zM400 900h500v-100h100v-100h100v-500h-100v-100h-100v-100h-500v100h-100v100h-100v500h100v100h100v100z" />
    <glyph glyph-name="Ocircumflex" unicode="&#xd4;" 
d="M800 700h-300v-100h-100v-300h100v-100h300v100h100v300h-100v100zM500 1200h300v-100h100v-100h-200v100h-100v-100h-200v100h100v100zM400 900h500v-100h100v-100h100v-500h-100v-100h-100v-100h-500v100h-100v100h-100v500h100v100h100v100z" />
    <glyph glyph-name="Otilde" unicode="&#xd5;" 
d="M800 700h-300v-100h-100v-300h100v-100h300v100h100v300h-100v100zM400 900h500v-100h100v-100h100v-500h-100v-100h-100v-100h-500v100h-100v100h-100v500h100v100h100v100zM400 1200h300v-100h100v100h200v-100h-100v-100h-300v100h-100v-100h-200v100h100v100z" />
    <glyph glyph-name="Odieresis" unicode="&#xd6;" 
d="M800 700h-300v-100h-100v-300h100v-100h300v100h100v300h-100v100zM300 1200h200v-200h-200v200zM800 1200h200v-200h-200v200zM400 900h500v-100h100v-100h100v-500h-100v-100h-100v-100h-500v100h-100v100h-100v500h100v100h100v100z" />
    <glyph glyph-name="multiply" unicode="&#xd7;" 
d="M200 900h200v-100h100v-100h200v100h100v100h200v-200h-100v-100h-100v-200h100v-100h100v-200h-200v100h-100v100h-200v-100h-100v-100h-200v200h100v100h100v200h-100v100h-100v200z" />
    <glyph glyph-name="Oslash" unicode="&#xd8;" 
d="M700 800h-200v-100h-100v-400h100v200h100v200h100v100zM900 700h-100v-200h-100v-200h-100v-100h200v100h100v400zM900 1200h200v-200h-100v-200h100v-600h-100v-100h-100v-100h-400v-100h-100v-100h-200v200h100v200h-100v600h100v100h100v100h400v100h100v100z" />
    <glyph glyph-name="Ugrave" unicode="&#xd9;" 
d="M400 1200h200v-100h100v-100h100v-100h-200v100h-100v100h-100v100zM200 900h200v-700h500v700h200v-800h-100v-100h-700v100h-100v800z" />
    <glyph glyph-name="Uacute" unicode="&#xda;" 
d="M700 1200h200v-100h-100v-100h-100v-100h-200v100h100v100h100v100zM200 900h200v-700h500v700h200v-800h-100v-100h-700v100h-100v800z" />
    <glyph glyph-name="Ucircumflex" unicode="&#xdb;" 
d="M500 1200h300v-100h100v-200h-100v100h-100v100h-100v-100h-100v-100h-100v200h100v100zM200 900h200v-700h500v700h200v-800h-100v-100h-700v100h-100v800z" />
    <glyph glyph-name="Udieresis" unicode="&#xdc;" 
d="M300 1200h200v-200h-200v200zM800 1200h200v-200h-200v200zM200 900h200v-700h500v700h200v-800h-100v-100h-700v100h-100v800z" />
    <glyph glyph-name="Yacute" unicode="&#xdd;" 
d="M700 1200h200v-100h-100v-100h-100v-100h-200v100h100v100h100v100zM100 900h200v-100h100v-100h100v-100h200v100h100v100h100v100h200v-200h-100v-100h-100v-100h-100v-100h-100v-400h-200v400h-100v100h-100v100h-100v100h-100v200z" />
    <glyph glyph-name="Thorn" unicode="&#xde;" 
d="M900 600h-500v-200h500v200zM200 1000h200v-200h600v-100h100v-400h-100v-100h-600v-200h-200v1000z" />
    <glyph glyph-name="germandbls" unicode="&#xdf;" 
d="M400 1000h500v-100h100v-200h-100v-100h100v-100h100v-400h-100v-100h-400v200h300v300h-300v200h200v200h-300v-100h-100v-1000h-200v1000h100v100h100v100z" />
    <glyph glyph-name="agrave" unicode="&#xe0;" 
d="M400 1000h200v-100h100v-100h-200v100h-100v100zM800 300h-500v-100h100v-100h300v100h100v100zM200 700h700v-100h100v-400h100v-200h-900v100h-100v200h100v100h600v100h-100v100h-300v-100h-300v100h100v100z" />
    <glyph glyph-name="aacute" unicode="&#xe1;" 
d="M500 1000h200v-100h-100v-100h-200v100h100v100zM800 300h-500v-100h100v-100h300v100h100v100zM200 700h700v-100h100v-400h100v-200h-900v100h-100v200h100v100h600v100h-100v100h-300v-100h-300v100h100v100z" />
    <glyph glyph-name="acircumflex" unicode="&#xe2;" 
d="M500 1100h100v-100h100v-100h100v-100h-200v100h-100v-100h-200v100h100v100h100v100zM800 300h-500v-100h100v-100h300v100h100v100zM200 700h700v-100h100v-400h100v-200h-900v100h-100v200h100v100h600v100h-100v100h-300v-100h-300v100h100v100z" />
    <glyph glyph-name="atilde" unicode="&#xe3;" 
d="M300 1100h300v-100h100v-100h100v100h100v100h100v-200h-100v-100h-300v100h-100v100h-100v-100h-100v-100h-100v200h100v100zM800 300h-500v-100h100v-100h300v100h100v100zM200 700h700v-100h100v-400h100v-200h-900v100h-100v200h100v100h600v100h-100v100h-300v-100
h-300v100h100v100z" />
    <glyph glyph-name="adieresis" unicode="&#xe4;" 
d="M300 1000h200v-200h-200v200zM700 1000h200v-200h-200v200zM800 300h-500v-100h100v-100h300v100h100v100zM200 700h700v-100h100v-400h100v-200h-900v100h-100v200h100v100h600v100h-100v100h-300v-100h-300v100h100v100z" />
    <glyph glyph-name="aring" unicode="&#xe5;" 
d="M400 1200h300v-100h100v-200h-100v-100h-300v100h-100v200h100v100zM600 1100h-100v-200h100v200zM800 300h-500v-100h100v-100h300v100h100v100zM200 700h700v-100h100v-400h100v-200h-900v100h-100v200h100v100h600v100h-100v100h-300v-100h-300v100h100v100z" />
    <glyph glyph-name="ae" unicode="&#xe6;" 
d="M900 500h-200v-100h200v100zM500 300h-200v-100h200v100zM200 700h300v-100h100v100h400v-100h100v-300h-400v-100h300v-200h-400v100h-100v-100h-300v100h-100v200h100v100h300v100h-300v200z" />
    <glyph glyph-name="ccedilla" unicode="&#xe7;" 
d="M400 700h500v-100h100v-100h100v-100h-200v100h-400v-100h-100v-100h100v-100h400v100h200v-100h-100v-100h-100v-100h-200v-100h-100v-100h-200v100h100v100h-100v100h-100v100h-100v300h100v100h100v100z" />
    <glyph glyph-name="egrave" unicode="&#xe8;" 
d="M500 1000h200v-100h100v-100h-200v100h-100v100zM800 600h-300v-100h-100v-100h500v100h-100v100zM300 700h700v-100h100v-300h-700v-100h100v-100h400v100h200v-100h-100v-100h-700v100h-100v500h100v100z" />
    <glyph glyph-name="eacute" unicode="&#xe9;" 
d="M600 1000h200v-100h-100v-100h-200v100h100v100zM800 600h-300v-100h-100v-100h500v100h-100v100zM300 700h700v-100h100v-300h-700v-100h100v-100h400v100h200v-100h-100v-100h-700v100h-100v500h100v100z" />
    <glyph glyph-name="ecircumflex" unicode="&#xea;" 
d="M600 1100h100v-100h100v-100h100v-100h-200v100h-100v-100h-200v100h100v100h100v100zM800 600h-300v-100h-100v-100h500v100h-100v100zM300 700h700v-100h100v-300h-700v-100h100v-100h400v100h200v-100h-100v-100h-700v100h-100v500h100v100z" />
    <glyph glyph-name="edieresis" unicode="&#xeb;" 
d="M400 1000h200v-200h-200v200zM800 1000h200v-200h-200v200zM800 600h-300v-100h-100v-100h500v100h-100v100zM300 700h700v-100h100v-300h-700v-100h100v-100h400v100h200v-100h-100v-100h-700v100h-100v500h100v100z" />
    <glyph glyph-name="igrave" unicode="&#xec;" 
d="M400 1100h100v-100h100v-100h100v-200h-100v100h-100v100h-100v200zM400 600h300v-400h200v-200h-600v200h200v200h-100v200z" />
    <glyph glyph-name="iacute" unicode="&#xed;" 
d="M700 1100h100v-200h-100v-100h-100v-100h-100v200h100v100h100v100zM400 600h300v-400h200v-200h-600v200h200v200h-100v200z" />
    <glyph glyph-name="icircumflex" unicode="&#xee;" 
d="M500 1000h100v-100h100v-100h100v-100h-200v100h-100v-100h-200v100h100v100h100v100zM400 600h300v-400h200v-200h-600v200h200v200h-100v200z" />
    <glyph glyph-name="idieresis" unicode="&#xef;" 
d="M300 900h200v-200h-200v200zM600 900h200v-200h-200v200zM400 600h300v-400h200v-200h-600v200h200v200h-100v200z" />
    <glyph glyph-name="eth" unicode="&#xf0;" 
d="M700 400h-300v-200h400v100h-100v100zM800 1100h200v-200h100v-200h-100v-700h-700v100h-100v400h100v100h400v-100h100v200h-200v200h200v200z" />
    <glyph glyph-name="ntilde" unicode="&#xf1;" 
d="M300 1100h400v-100h100v-100h100v100h100v100h100v-200h-100v-100h-400v100h-100v100h-100v-100h-100v-100h-100v200h100v100zM200 700h200v-100h100v100h500v-100h100v-600h-200v500h-400v-100h-100v-400h-200v700z" />
    <glyph glyph-name="ograve" unicode="&#xf2;" 
d="M500 1000h200v-100h100v-100h-200v100h-100v100zM900 500h-500v-300h500v300zM300 700h700v-100h100v-500h-100v-100h-700v100h-100v500h100v100z" />
    <glyph glyph-name="oacute" unicode="&#xf3;" 
d="M600 1000h200v-100h-100v-100h-200v100h100v100zM900 500h-500v-300h500v300zM300 700h700v-100h100v-500h-100v-100h-700v100h-100v500h100v100z" />
    <glyph glyph-name="ocircumflex" unicode="&#xf4;" 
d="M600 1100h100v-100h100v-100h100v-100h-200v100h-100v-100h-200v100h100v100h100v100zM900 500h-500v-300h500v300zM300 700h700v-100h100v-500h-100v-100h-700v100h-100v500h100v100z" />
    <glyph glyph-name="otilde" unicode="&#xf5;" 
d="M300 1100h300v-100h100v-100h100v100h100v100h100v-200h-100v-100h-300v100h-100v100h-100v-100h-100v-100h-100v200h100v100zM900 500h-500v-300h500v300zM300 700h700v-100h100v-500h-100v-100h-700v100h-100v500h100v100z" />
    <glyph glyph-name="odieresis" unicode="&#xf6;" 
d="M900 500h-500v-300h500v300zM300 1000h200v-200h-200v200zM800 1000h200v-200h-200v200zM300 700h700v-100h100v-500h-100v-100h-700v100h-100v500h100v100z" />
    <glyph glyph-name="divide" unicode="&#xf7;" 
d="M500 900h200v-200h-200v200zM200 600h800v-200h-800v200zM500 300h200v-200h-200v200z" />
    <glyph glyph-name="oslash" unicode="&#xf8;" 
d="M600 500h-200v-300h100v200h100v100zM900 500h-100v-200h-100v-100h200v300zM900 900h200v-200h-100v-100h100v-500h-100v-100h-500v-100h-100v-100h-200v200h100v100h-100v500h100v100h500v100h100v100z" />
    <glyph glyph-name="ugrave" unicode="&#xf9;" 
d="M500 1000h200v-100h100v-100h-200v100h-100v100zM200 700h200v-500h400v100h100v400h200v-700h-200v100h-100v-100h-500v100h-100v600z" />
    <glyph glyph-name="uacute" unicode="&#xfa;" 
d="M600 1000h200v-100h-100v-100h-200v100h100v100zM200 700h200v-500h400v100h100v400h200v-700h-200v100h-100v-100h-500v100h-100v600z" />
    <glyph glyph-name="ucircumflex" unicode="&#xfb;" 
d="M600 1100h100v-100h100v-100h100v-100h-200v100h-100v-100h-200v100h100v100h100v100zM200 700h200v-500h400v100h100v400h200v-700h-200v100h-100v-100h-500v100h-100v600z" />
    <glyph glyph-name="udieresis" unicode="&#xfc;" 
d="M300 1000h200v-200h-200v200zM800 1000h200v-200h-200v200zM200 700h200v-500h400v100h100v400h200v-700h-200v100h-100v-100h-500v100h-100v600z" />
    <glyph glyph-name="yacute" unicode="&#xfd;" 
d="M600 1000h200v-100h-100v-100h-200v100h100v100zM200 700h200v-100h100v-100h100v-100h100v100h100v100h100v100h200v-200h-100v-100h-100v-100h-100v-100h-100v-100h-100v-100h-100v-100h-100v-100h-300v100h100v100h100v100h100v100h100v100h-100v100h-100v100h-100
v200z" />
    <glyph glyph-name="thorn" unicode="&#xfe;" 
d="M900 500h-400v-200h400v200zM200 1000h200v-400h100v100h500v-100h100v-400h-100v-100h-500v100h-100v-400h-200v1200z" />
    <glyph glyph-name="ydieresis" unicode="&#xff;" 
d="M300 1000h200v-200h-200v200zM800 1000h200v-200h-200v200zM200 700h200v-100h100v-100h100v-100h100v100h100v100h100v100h200v-200h-100v-100h-100v-100h-100v-100h-100v-100h-100v-100h-100v-100h-100v-100h-300v100h100v100h100v100h100v100h100v100h-100v100h-100
v100h-100v200z" />
    <glyph glyph-name="Aogonek" unicode="&#x104;" 
d="M700 800h-200v-100h-100v-100h-100v-100h600v100h-100v100h-100v100zM400 1000h400v-100h100v-100h100v-100h100v-700h-100v-100h166v-100h-366v300h100v200h-600v-300h-200v700h100v100h100v100h100v100z" />
    <glyph glyph-name="aogonek" unicode="&#x105;" 
d="M800 300h-500v-100h500v100zM100 700h800v-100h100v-400h100v-200h-200v-100h300v-100h-500v200h-500v100h-100v200h100v100h600v100h-700v200z" />
    <glyph glyph-name="Cacute" unicode="&#x106;" 
d="M600 1200h300v-100h-100v-100h-300v100h100v100zM400 900h500v-100h100v-100h100v-200h-200v100h-100v100h-300v-100h-100v-300h100v-100h300v100h100v100h200v-200h-100v-100h-100v-100h-500v100h-100v100h-100v500h100v100h100v100z" />
    <glyph glyph-name="cacute" unicode="&#x107;" 
d="M400 700h700v-200h-600v-300h600v-200h-700v100h-100v100h-100v300h100v100h100v100zM700 1000h200v-100h-100v-100h-200v100h100v100z" />
    <glyph glyph-name="Ccircumflex" unicode="&#x108;" 
d="M500 1200h300v-100h100v-100h-200v100h-100v-100h-200v100h100v100zM400 900h500v-100h100v-100h100v-200h-200v100h-100v100h-300v-100h-100v-300h100v-100h300v100h100v100h200v-200h-100v-100h-100v-100h-500v100h-100v100h-100v500h100v100h100v100z" />
    <glyph glyph-name="ccircumflex" unicode="&#x109;" 
d="M700 1100h100v-100h100v-100h100v-100h-200v100h-100v-100h-200v100h100v100h100v100zM400 700h700v-200h-600v-300h600v-200h-700v100h-100v100h-100v300h100v100h100v100z" />
    <glyph glyph-name="Ccaron" unicode="&#x10c;" 
d="M400 1200h200v-100h100v100h200v-100h-100v-100h-300v100h-100v100zM400 900h500v-100h100v-100h100v-200h-200v100h-100v100h-300v-100h-100v-300h100v-100h300v100h100v100h200v-200h-100v-100h-100v-100h-500v100h-100v100h-100v500h100v100h100v100z" />
    <glyph glyph-name="ccaron" unicode="&#x10d;" 
d="M500 1100h200v-100h100v100h200v-100h-100v-100h-100v-100h-100v100h-100v100h-100v100zM400 700h700v-200h-600v-300h600v-200h-700v100h-100v100h-100v300h100v100h100v100z" />
    <glyph glyph-name="Dcaron" unicode="&#x10e;" 
d="M400 1200h200v-100h100v100h200v-100h-100v-100h-300v100h-100v100zM800 700h-400v-500h400v100h100v300h-100v100zM200 900h700v-100h100v-100h100v-500h-100v-100h-100v-100h-700v900z" />
    <glyph glyph-name="dcaron" unicode="&#x10f;" 
d="M800 500h-400v-300h400v300zM400 1200h200v-100h100v100h200v-100h-100v-100h-100v-100h-100v100h-100v100h-100v100zM900 900h200v-900h-200v100h-100v-100h-500v100h-100v500h100v100h500v-100h100v300z" />
    <glyph glyph-name="Eogonek" unicode="&#x118;" 
d="M200 1000h900v-200h-700v-200h500v-200h-500v-200h700v-200h-400v-100h200v-100h-400v200h-300v1000z" />
    <glyph glyph-name="eogonek" unicode="&#x119;" 
d="M900 500h-500v-100h500v100zM300 700h700v-100h100v-300h-700v-100h600v-200h-300v-100h200v-100h-400v200h-200v100h-100v500h100v100z" />
    <glyph glyph-name="Ecaron" unicode="&#x11a;" 
d="M400 1200h200v-100h100v100h200v-100h-100v-100h-300v100h-100v100zM200 900h900v-200h-700v-200h500v-100h-500v-200h700v-200h-900v900z" />
    <glyph glyph-name="ecaron" unicode="&#x11b;" 
d="M900 500h-500v-100h500v100zM400 1100h200v-100h100v100h200v-100h-100v-100h-100v-100h-100v100h-100v100h-100v100zM300 700h700v-100h100v-300h-700v-100h600v-200h-700v100h-100v500h100v100z" />
    <glyph glyph-name="Gcircumflex" unicode="&#x11c;" 
d="M500 1200h300v-100h100v-100h-200v100h-100v-100h-200v100h100v100zM300 900h700v-100h100v-200h-200v100h-500v-500h500v200h-300v100h500v-400h-100v-100h-700v100h-100v700h100v100z" />
    <glyph glyph-name="gcircumflex" unicode="&#x11d;" 
d="M800 500h-400v-100h400v100zM600 1100h100v-100h100v-100h100v-100h-200v100h-100v-100h-200v100h100v100h100v100zM300 700h800v-700h-100v-100h-700v200h600v200h-100v-100h-500v100h-100v300h100v100z" />
    <glyph glyph-name="Hcircumflex" unicode="&#x124;" 
d="M400 1200h400v-100h100v-100h-200v100h-200v-100h-200v100h100v100zM100 900h200v-300h600v300h200v-900h-200v400h-600v-400h-200v900z" />
    <glyph glyph-name="hcircumflex" unicode="&#x125;" 
d="M600 1200h100v-100h100v-100h100v-100h-200v100h-100v-100h-200v100h100v100h100v100zM200 900h200v-300h100v100h500v-100h100v-600h-200v500h-400v-100h-100v-400h-200v900z" />
    <glyph glyph-name="dotlessi" unicode="&#x131;" 
d="M400 700h300v-500h200v-200h-600v200h200v300h-100v200z" />
    <glyph glyph-name="Jcircumflex" unicode="&#x134;" 
d="M500 1200h300v-100h100v-200h-100v100h-100v100h-100v-100h-100v-100h-100v200h100v100zM900 900h200v-700h-100v-100h-100v-100h-500v100h-100v100h-100v200h200v-100h100v-100h300v100h100v600z" />
    <glyph glyph-name="jcircumflex" unicode="&#x135;" 
d="M500 1000h100v-100h100v-100h100v-100h-200v100h-100v-100h-200v100h100v100h100v100zM600 600h300v-700h-100v-100h-500v100h-100v200h200v-100h300v300h-100v300z" />
    <glyph glyph-name="Lslash" unicode="&#x141;" 
d="M200 1000h200v-400h100v100h100v100h200v-100h-100v-100h-100v-100h-200v-300h700v-200h-900v300h-100v-100h-100v200h100v100h100v500z" />
    <glyph glyph-name="lslash" unicode="&#x142;" 
d="M300 900h400v-300h100v100h100v100h100v-200h-100v-100h-200v-300h300v-200h-800v200h300v200h-100v-100h-200v100h100v100h200v200h-200v200z" />
    <glyph glyph-name="Nacute" unicode="&#x143;" 
d="M600 1200h200v-100h-100v-100h-200v100h100v100zM100 900h300v-100h100v-100h100v-100h100v-100h100v-100h100v500h200v-900h-200v100h-100v100h-100v100h-100v100h-100v100h-100v100h-100v-600h-200v900z" />
    <glyph glyph-name="nacute" unicode="&#x144;" 
d="M600 1000h200v-100h-100v-100h-200v100h100v100zM200 700h200v-100h100v100h500v-100h100v-600h-200v500h-400v-100h-100v-400h-200v700z" />
    <glyph glyph-name="Ncaron" unicode="&#x147;" 
d="M300 1200h200v-100h200v100h200v-100h-100v-100h-400v100h-100v100zM100 900h300v-100h100v-100h100v-100h100v-100h100v-100h100v500h200v-900h-200v100h-100v100h-100v100h-100v100h-100v100h-100v100h-100v-600h-200v900z" />
    <glyph glyph-name="ncaron" unicode="&#x148;" 
d="M400 1100h200v-100h100v100h200v-100h-100v-100h-100v-100h-100v100h-100v100h-100v100zM200 700h200v-100h100v100h500v-100h100v-600h-200v500h-400v-100h-100v-400h-200v700z" />
    <glyph glyph-name="OE" unicode="&#x152;" 
d="M600 800h-300v-600h300v600zM200 1000h400v-100h100v100h400v-200h-300v-200h300v-200h-300v-200h300v-200h-400v100h-100v-100h-400v100h-100v800h100v100z" />
    <glyph glyph-name="oe" unicode="&#x153;" 
d="M500 500h-200v-300h200v300zM900 500h-200v-100h200v100zM200 700h300v-100h100v100h400v-100h100v-300h-400v-100h300v-200h-400v100h-100v-100h-300v100h-100v500h100v100z" />
    <glyph glyph-name="Rcaron" unicode="&#x158;" 
d="M900 700h-500v-200h500v200zM400 1200h200v-100h100v100h200v-100h-100v-100h-300v100h-100v100zM200 900h800v-100h100v-400h-100v-100h100v-300h-200v200h-100v100h-400v-300h-200v900z" />
    <glyph glyph-name="rcaron" unicode="&#x159;" 
d="M400 1100h200v-100h100v100h200v-100h-100v-100h-100v-100h-100v100h-100v100h-100v100zM200 700h200v-200h100v100h100v100h400v-200h-400v-100h-100v-100h-100v-300h-200v700z" />
    <glyph glyph-name="Sacute" unicode="&#x15a;" 
d="M600 1200h200v-100h-100v-100h300v-200h-600v-200h600v-100h100v-400h-100v-100h-700v200h600v200h-600v100h-100v400h100v100h200v100h100v100z" />
    <glyph glyph-name="sacute" unicode="&#x15b;" 
d="M600 1000h200v-100h-100v-100h-200v100h100v100zM300 700h700v-200h-600v-100h600v-100h100v-200h-100v-100h-700v200h600v100h-600v100h-100v200h100v100z" />
    <glyph glyph-name="Scircumflex" unicode="&#x15c;" 
d="M500 1200h300v-100h100v-100h-200v100h-100v-100h-200v100h100v100zM300 900h700v-200h-600v-100h600v-100h100v-400h-100v-100h-700v200h600v200h-600v100h-100v300h100v100z" />
    <glyph glyph-name="scircumflex" unicode="&#x15d;" 
d="M600 1100h100v-100h100v-100h100v-100h-200v100h-100v-100h-200v100h100v100h100v100zM300 700h700v-200h-600v-100h600v-100h100v-200h-100v-100h-700v200h600v100h-600v100h-100v200h100v100z" />
    <glyph glyph-name="Scaron" unicode="&#x160;" 
d="M400 1200h200v-100h100v100h200v-100h-100v-100h-300v100h-100v100zM300 900h700v-200h-600v-100h600v-100h100v-400h-100v-100h-700v200h600v200h-600v100h-100v300h100v100z" />
    <glyph glyph-name="scaron" unicode="&#x161;" 
d="M400 1100h200v-100h100v100h200v-100h-100v-100h-100v-100h-100v100h-100v100h-100v100zM300 700h700v-200h-600v-100h600v-100h100v-200h-100v-100h-700v200h600v100h-600v100h-100v200h100v100z" />
    <glyph glyph-name="Tcaron" unicode="&#x164;" 
d="M300 1200h200v-100h200v100h200v-100h-100v-100h-400v100h-100v100zM100 900h1000v-200h-400v-700h-200v700h-400v200z" />
    <glyph glyph-name="tcaron" unicode="&#x165;" 
d="M400 1200h200v-100h100v100h200v-100h-100v-100h-100v-100h-100v100h-100v100h-100v100zM400 900h200v-200h300v-200h-300v-200h100v-100h300v-200h-400v100h-100v100h-100v300h-200v200h200v200z" />
    <glyph glyph-name="Ubreve" unicode="&#x16c;" 
d="M400 1200h100v-100h100v-100h100v100h100v100h100v-200h-100v-100h-300v100h-100v200zM200 900h200v-700h500v700h200v-800h-100v-100h-700v100h-100v800z" />
    <glyph glyph-name="ubreve" unicode="&#x16d;" 
d="M400 1100h100v-100h100v-100h100v100h100v100h100v-200h-100v-100h-300v100h-100v200zM200 700h200v-500h400v100h100v400h200v-700h-200v100h-100v-100h-500v100h-100v600z" />
    <glyph glyph-name="Uring" unicode="&#x16e;" 
d="M700 1100h-100v-100h100v100zM500 1200h300v-100h100v-100h-100v-100h-300v100h-100v100h100v100zM200 900h200v-700h500v700h200v-800h-100v-100h-700v100h-100v800z" />
    <glyph glyph-name="uring" unicode="&#x16f;" 
d="M500 1200h300v-100h100v-200h-100v-100h-300v100h-100v200h100v100zM700 1100h-100v-200h100v200zM200 700h200v-500h400v100h100v400h200v-700h-200v100h-100v-100h-500v100h-100v600z" />
    <glyph glyph-name="Ydieresis" unicode="&#x178;" 
d="M300 1200h200v-200h-200v200zM700 1200h200v-200h-200v200zM100 900h200v-100h100v-100h100v-100h200v100h100v100h100v100h200v-200h-100v-100h-100v-100h-100v-100h-100v-400h-200v400h-100v100h-100v100h-100v100h-100v200z" />
    <glyph glyph-name="Zacute" unicode="&#x179;" 
d="M600 1200h200v-100h-100v-100h300v-200h-100v-100h-100v-100h-100v-200h-100v-200h400v-200h-800v200h100v100h100v200h100v200h100v100h-400v200h300v100h100v100z" />
    <glyph glyph-name="zacute" unicode="&#x17a;" 
d="M600 1000h200v-100h-100v-100h-200v100h100v100zM200 700h900v-100h-100v-100h-100v-100h-100v-100h-100v-100h400v-200h-900v100h100v100h100v100h100v100h100v100h-400v200z" />
    <glyph glyph-name="Zdotaccent" unicode="&#x17b;" 
d="M500 1200h200v-200h300v-200h-100v-100h-100v-100h-100v-200h-100v-200h400v-200h-800v200h100v100h100v200h100v200h100v100h-400v200h300v200z" />
    <glyph glyph-name="zdotaccent" unicode="&#x17c;" 
d="M500 1000h200v-200h-200v200zM200 700h900v-100h-100v-100h-100v-100h-100v-100h-100v-100h400v-200h-900v100h100v100h100v100h100v100h100v100h-400v200z" />
    <glyph glyph-name="Zcaron" unicode="&#x17d;" 
d="M300 1200h200v-100h200v100h200v-100h-100v-100h-400v100h-100v100zM200 900h800v-200h-100v-100h-100v-100h-100v-200h-100v-100h400v-200h-800v200h100v100h100v100h100v200h100v100h-400v200z" />
    <glyph glyph-name="zcaron" unicode="&#x17e;" 
d="M400 1100h200v-100h100v100h200v-100h-100v-100h-100v-100h-100v100h-100v100h-100v100zM200 700h900v-100h-100v-100h-100v-100h-100v-100h-100v-100h400v-200h-900v100h100v100h100v100h100v100h100v100h-400v200z" />
    <glyph glyph-name="circumflex" unicode="&#x2c6;" 
d="M600 1000h100v-100h100v-100h100v-100h-200v100h-100v-100h-200v100h100v100h100v100z" />
    <glyph glyph-name="caron" unicode="&#x2c7;" 
d="M400 1000h200v-100h100v100h200v-100h-100v-100h-100v-100h-100v100h-100v100h-100v100z" />
    <glyph glyph-name="breve" unicode="&#x2d8;" 
d="M400 1000h100v-100h100v-100h100v100h100v100h100v-200h-100v-100h-300v100h-100v200z" />
    <glyph glyph-name="dotaccent" unicode="&#x2d9;" 
d="M500 1000h200v-200h-200v200z" />
    <glyph glyph-name="ring" unicode="&#x2da;" 
d="M500 1100h300v-100h100v-200h-100v-100h-300v100h-100v200h100v100zM700 1000h-100v-200h100v200z" />
    <glyph glyph-name="ogonek" unicode="&#x2db;" 
d="M400 100h200v-100h200v-200h-400v300z" />
    <glyph glyph-name="tilde" unicode="&#x2dc;" 
d="M300 1000h300v-100h100v-100h100v100h100v100h100v-200h-100v-100h-300v100h-100v100h-100v-100h-100v-100h-100v200h100v100z" />
    <glyph glyph-name="endash" unicode="&#x2013;" 
d="M200 600h800v-200h-800v200z" />
    <glyph glyph-name="emdash" unicode="&#x2014;" 
d="M100 600h1000v-200h-1000v200z" />
    <glyph glyph-name="quoteleft" unicode="&#x2018;" 
d="M800 600h-300v300h100v100h200v-100h-100v-200h100v-100z" />
    <glyph glyph-name="quoteright" unicode="&#x2019;" 
d="M500 1000h300v-300h-100v-100h-200v100h100v200h-100v100z" />
    <glyph glyph-name="quotesinglbase" unicode="&#x201a;" 
d="M500 200h300v-300h-100v-100h-200v100h100v200h-100v100z" />
    <glyph glyph-name="quotedblleft" unicode="&#x201c;" 
d="M500 600h-300v300h100v100h200v-100h-100v-200h100v-100zM1000 600h-300v300h100v100h200v-100h-100v-200h100v-100z" />
    <glyph glyph-name="quotedblright" unicode="&#x201d;" 
d="M200 1000h300v-300h-100v-100h-200v100h100v200h-100v100zM700 1000h300v-300h-100v-100h-200v100h100v200h-100v100z" />
    <glyph glyph-name="quotedblbase" unicode="&#x201e;" 
d="M200 200h300v-300h-100v-100h-200v100h100v200h-100v100zM700 200h300v-300h-100v-100h-200v100h100v200h-100v100z" />
    <glyph glyph-name="dagger" unicode="&#x2020;" 
d="M500 1100h200v-200h200v-200h-200v-800h-200v800h-200v200h200v200z" />
    <glyph glyph-name="daggerdbl" unicode="&#x2021;" 
d="M500 1100h200v-200h200v-200h-200v-400h200v-200h-200v-200h-200v200h-200v200h200v400h-200v200h200v200z" />
    <glyph glyph-name="bullet" unicode="&#x2022;" 
d="M400 900h300v-400h-300v400z" />
    <glyph glyph-name="ellipsis" unicode="&#x2026;" 
d="M100 200h200v-200h-200v200zM500 200h200v-200h-200v200zM900 200h200v-200h-200v200z" />
    <glyph glyph-name="perthousand" unicode="&#x2030;" 
d="M300 900h-100v-200h100v200zM100 1000h300v-100h100v-200h-100v-100h-300v100h-100v200h100v100zM700 900h200v-100h-100v-100h-100v-100h-100v-100h-100v-100h-100v-100h-100v-100h-100v-100h-200v100h100v100h100v100h100v100h100v100h100v100h100v100h100v100z
M500 400h200v-100h-100v-200h100v200h100v100h300v-100h100v-200h-100v-100h-200v100h100v200h-100v-200h-100v-100h-300v100h-100v200h100v100z" />
    <glyph glyph-name="guilsinglleft" unicode="&#x2039;" 
d="M600 900h300v-100h-100v-100h-100v-100h-100v-200h100v-100h100v-100h100v-100h-300v100h-100v100h-100v100h-100v200h100v100h100v100h100v100z" />
    <glyph glyph-name="guilsinglright" unicode="&#x203a;" 
d="M300 900h300v-100h100v-100h100v-100h100v-200h-100v-100h-100v-100h-100v-100h-300v100h100v100h100v100h100v200h-100v100h-100v100h-100v100z" />
    <glyph glyph-name="Euro" unicode="&#x20ac;" 
d="M400 900h600v-100h100v-200h-200v100h-400v-100h300v-100h-300v-100h200v-100h-200v-100h400v100h200v-200h-100v-100h-600v100h-100v200h-100v100h100v100h-100v100h100v200h100v100z" />
    <glyph glyph-name="uni20B1" unicode="&#x20b1;" 
d="M800 800h-400v-100h400v100zM800 600h-400v-100h400v100zM200 1000h700v-100h100v-200h100v-100h-100v-200h-100v-100h-500v-300h-200v600h-100v100h100v300z" />
    <glyph glyph-name="uni20B7" unicode="&#x20b7;" 
d="M300 1000h700v-100h100v-200h-200v100h-500v-200h600v-100h100v-400h-100v-100h-200v-100h-100v100h-100v-100h-100v100h-200v100h-100v200h100v200h-100v400h100v100zM900 400h-200v-100h-100v100h-100v-100h-100v-100h100v100h100v-100h100v100h100v-100h100v200z" />
    <glyph glyph-name="uni2117" unicode="&#x2117;" 
d="M400 800h300v-100h-100v-200h100v-100h-100v-200h-200v600zM800 900h-400v-100h-100v-600h100v-100h400v100h100v600h-100v100zM300 1100h600v-100h100v-100h100v-800h-100v-100h-100v-100h-600v100h-100v100h-100v800h100v100h100v100zM700 700h100v-200h-100v200z" />
    <glyph glyph-name="trademark" unicode="&#x2122;" 
d="M0 1100h400v-100h-100v-500h-200v500h-100v100zM500 1100h200v-100h100v-100h100v100h100v100h200v-600h-200v300h-100v-100h-100v100h-100v-300h-200v600z" />
    <glyph glyph-name="arrowleft" unicode="&#x2190;" 
d="M500 1000h100v-300h-100v-100h600v-200h-600v-100h100v-300h-100v100h-200v100h-100v100h-100v100h-100v200h100v100h100v100h200v100h100v100z" />
    <glyph glyph-name="arrowup" unicode="&#x2191;" 
d="M500 1100h200v-100h100v-100h100v-100h100v-300h-100v100h-100v100h-100v-900h-200v900h-100v-100h-100v-100h-100v300h100v100h100v100h100v100z" />
    <glyph glyph-name="arrowright" unicode="&#x2192;" 
d="M500 1000h100v-100h200v-100h100v-100h100v-100h100v-200h-100v-100h-100v-100h-200v-100h-100v-100h-100v300h100v100h-600v200h600v100h-100v300z" />
    <glyph glyph-name="arrowdown" unicode="&#x2193;" 
d="M500 1200h200v-900h100v100h100v100h100v-300h-100v-100h-100v-100h-100v-100h-200v100h-100v100h-100v100h-100v300h100v-100h100v-100h100v900z" />
    <glyph glyph-name="filledbox" unicode="&#x25a0;" 
d="M100 1100h1000v-1200h-1000v1200z" />
  </font>
</defs>
</svg>
