<?xml version="1.0" encoding="utf-8"?>
<!-- Generator: Adobe Illustrator 26.1.0, SVG Export Plug-In . SVG Version: 6.00 Build 0)  -->
<svg version="1.1" xmlns="http://www.w3.org/2000/svg" xmlns:xlink="http://www.w3.org/1999/xlink" x="0px" y="0px"
	 viewBox="0 0 800 800" style="enable-background:new 0 0 800 800;" xml:space="preserve">
<style type="text/css">
	.st0{opacity:0.5;fill:url(#SVGID_1_);}
	.st1{fill:#6D6D6D;}
	.st2{fill:url(#SVGID_00000134220110379431602770000001225227521704434562_);}
	.st3{fill:url(#SVGID_00000154424408471829902600000005891061583739946933_);}
	.st4{fill:url(#SVGID_00000120555377726592382650000001375824009509098929_);}
	.st5{opacity:0.4;fill:#6D6D6D;}
	.st6{fill:url(#SVGID_00000134221963639688618090000013410289490606756757_);}
	.st7{fill:#772808;}
	.st8{fill:url(#SVGID_00000025418669791727487250000014183275795608193191_);}
	.st9{fill:url(#SVGID_00000016077441156172739490000004315355497572895634_);}
	.st10{fill:url(#SVGID_00000153698096507829004360000001007036073573832855_);}
	.st11{opacity:0.3;fill:url(#SVGID_00000136382961957449822500000013805177678383425434_);}
	.st12{fill:#191514;}
	.st13{fill:url(#SVGID_00000044143590295449757080000009734573942374186159_);}
	.st14{fill:url(#SVGID_00000106856235505564057030000018185254978994732436_);}
	.st15{fill:url(#SVGID_00000101797197958007302610000002760155197125006523_);}
	.st16{fill:url(#SVGID_00000121987603626621242380000010921926062599748743_);}
	.st17{fill:url(#SVGID_00000169542914646304982320000009796865797837259689_);}
	.st18{fill:url(#SVGID_00000074406479450087655660000006418239136213040546_);}
	.st19{fill:url(#SVGID_00000079470819471144904390000015460519286506100405_);}
	.st20{fill:url(#SVGID_00000063630562855627791670000009692137972670347671_);}
	.st21{opacity:0.2;fill:#141615;}
	.st22{fill:url(#SVGID_00000178197829175801163470000018168076944174227874_);}
	.st23{opacity:0.7;fill:url(#SVGID_00000025430668836733358540000018062767710606637239_);}
	.st24{fill:#EA924F;}
	.st25{fill:url(#SVGID_00000020357532858743748770000002584041945197432741_);}
	.st26{opacity:0.7;fill:url(#SVGID_00000044155826472610735730000002628872968657711766_);}
	.st27{fill:url(#SVGID_00000084508017672774407540000011622961196462036138_);}
	.st28{opacity:0.7;fill:url(#SVGID_00000121987118171417669200000006399760269413219770_);}
	.st29{fill:#B8460A;}
	.st30{fill:url(#SVGID_00000088101299129610020480000015986659919580258983_);}
	.st31{opacity:0.7;fill:url(#SVGID_00000033336671985781668560000010003775012392675201_);}
	.st32{fill:url(#SVGID_00000145770280826074467450000016882313693445065144_);}
	.st33{fill:#141615;}
	.st34{fill:#D1D4D1;}
	.st35{fill:#173979;}
	.st36{fill:#FFA800;}
	.st37{fill:#22BDE4;}
	.st38{fill:#1D8C09;}
	.st39{fill:#B2448D;}
	.st40{fill:#DB1F36;}
	.st41{opacity:0.8;fill:url(#SVGID_00000087403913181601527310000011365397387016527764_);}
</style>
<g id="background">
</g>
<g id="object">
	<g>
		
			<radialGradient id="SVGID_1_" cx="-17770.9473" cy="-32378.5762" r="1598.5511" gradientTransform="matrix(0.1458 0 0 8.600000e-03 2991.0039 864.4274)" gradientUnits="userSpaceOnUse">
			<stop  offset="0" style="stop-color:#666666"/>
			<stop  offset="0.1319" style="stop-color:#6D6D6D;stop-opacity:0.8681"/>
			<stop  offset="0.3245" style="stop-color:#818181;stop-opacity:0.6755"/>
			<stop  offset="0.5543" style="stop-color:#A1A1A1;stop-opacity:0.4457"/>
			<stop  offset="0.8106" style="stop-color:#CDCDCD;stop-opacity:0.1894"/>
			<stop  offset="1" style="stop-color:#F2F2F2;stop-opacity:0"/>
		</radialGradient>
		<path class="st0" d="M632.28,585.97c0-7.62-104-13.8-232.27-13.8c-128.28,0-232.29,6.17-232.29,13.8
			c0,7.62,104,13.79,232.29,13.79C528.28,599.77,632.28,593.59,632.28,585.97z"/>
		<g>
			<polygon class="st1" points="271.59,239.23 261.19,244.84 202.99,143.12 204.23,140.41 			"/>
			<polygon class="st1" points="296.03,261.44 306.43,267.05 376.99,142.87 372.38,140.15 			"/>
			
				<linearGradient id="SVGID_00000098179314157266297350000001541386986526715060_" gradientUnits="userSpaceOnUse" x1="185.8748" y1="162.3858" x2="198.7296" y2="162.3858" gradientTransform="matrix(0.8344 -0.5512 0.5512 0.8344 -40.6324 121.8995)">
				<stop  offset="0" style="stop-color:#D7D7D7"/>
				<stop  offset="1" style="stop-color:#969696"/>
			</linearGradient>
			<polygon style="fill:url(#SVGID_00000098179314157266297350000001541386986526715060_);" points="221.94,158.82 211.21,165.91 
				196.72,143.97 207.45,136.89 			"/>
			
				<linearGradient id="SVGID_00000117636605455075513210000008272698985408976548_" gradientUnits="userSpaceOnUse" x1="344.2053" y1="183.8738" x2="357.0606" y2="183.8738" gradientTransform="matrix(0.8757 0.4829 -0.4829 0.8757 161.0445 -198.4103)">
				<stop  offset="0" style="stop-color:#D7D7D7"/>
				<stop  offset="1" style="stop-color:#969696"/>
			</linearGradient>
			<polygon style="fill:url(#SVGID_00000117636605455075513210000008272698985408976548_);" points="378.58,146.54 367.32,140.34 
				380.02,117.31 391.28,123.52 			"/>
		</g>
		<g>
			<g>
				
					<linearGradient id="SVGID_00000139281749421663569630000006960824150236326832_" gradientUnits="userSpaceOnUse" x1="264.1472" y1="594.1522" x2="264.1472" y2="541.6735">
					<stop  offset="0" style="stop-color:#2E302F"/>
					<stop  offset="1" style="stop-color:#1C1E1D"/>
				</linearGradient>
				<polygon style="fill:url(#SVGID_00000139281749421663569630000006960824150236326832_);" points="266.3,584.69 250.39,584.69 
					255.55,540.84 277.9,540.84 				"/>
				<polygon class="st5" points="266.3,584.69 260.71,584.69 268.45,540.84 277.9,540.84 				"/>
			</g>
			<g>
				
					<linearGradient id="SVGID_00000168821996933487161390000006422048380176941470_" gradientUnits="userSpaceOnUse" x1="159.4785" y1="594.1522" x2="159.4785" y2="541.6735" gradientTransform="matrix(-1 0 0 1 695.3301 0)">
					<stop  offset="0" style="stop-color:#2E302F"/>
					<stop  offset="1" style="stop-color:#1C1E1D"/>
				</linearGradient>
				<polygon style="fill:url(#SVGID_00000168821996933487161390000006422048380176941470_);" points="533.7,584.69 549.61,584.69 
					544.45,540.84 522.09,540.84 				"/>
				<polygon class="st5" points="533.7,584.69 539.29,584.69 531.55,540.84 522.09,540.84 				"/>
			</g>
		</g>
		<path class="st7" d="M583.14,536.97c0,7.12-5.78,12.9-12.9,12.9H229.75c-7.12,0-12.9-5.77-12.9-12.9l0,0
			c0-7.12,5.77-12.9,12.9-12.9h340.49C577.37,524.08,583.14,529.85,583.14,536.97L583.14,536.97z"/>
		<g>
			
				<linearGradient id="SVGID_00000065776916613933513290000014584266080062610594_" gradientUnits="userSpaceOnUse" x1="400.0004" y1="195.1918" x2="400.0004" y2="609.1274">
				<stop  offset="0" style="stop-color:#E89356"/>
				<stop  offset="1" style="stop-color:#BB5013"/>
			</linearGradient>
			<path style="fill:url(#SVGID_00000065776916613933513290000014584266080062610594_);" d="M623.56,515.05
				c0,14.25-11.55,25.79-25.8,25.79H202.24c-14.25,0-25.79-11.55-25.79-25.79V257.96c0-14.25,11.55-25.79,25.79-25.79h395.52
				c14.25,0,25.8,11.55,25.8,25.79V515.05z"/>
			
				<linearGradient id="SVGID_00000047750356075784956250000005473961529326278048_" gradientUnits="userSpaceOnUse" x1="399.9995" y1="224.6581" x2="399.9995" y2="541.5759">
				<stop  offset="4.273500e-03" style="stop-color:#FBFBFB"/>
				<stop  offset="1" style="stop-color:#969696"/>
			</linearGradient>
			<path style="fill:url(#SVGID_00000047750356075784956250000005473961529326278048_);" d="M615.59,260.36
				c0-11.87-9.65-21.52-21.52-21.52H205.92c-11.86,0-21.52,9.65-21.52,21.52v252.3c0,11.86,9.65,21.52,21.52,21.52h388.15
				c11.87,0,21.52-9.65,21.52-21.52V260.36z"/>
			
				<linearGradient id="SVGID_00000178188717902313119670000004929179728001175207_" gradientUnits="userSpaceOnUse" x1="399.9985" y1="542.6573" x2="399.9985" y2="243.321">
				<stop  offset="0" style="stop-color:#4D4F4E"/>
				<stop  offset="0.9957" style="stop-color:#969696"/>
			</linearGradient>
			<path style="fill:url(#SVGID_00000178188717902313119670000004929179728001175207_);" d="M611.08,260.36c0-9.38-7.63-17-17-17
				H205.92c-9.38,0-17,7.63-17,17v252.3c0,9.38,7.63,17,17,17h388.15c9.38,0,17-7.63,17-17V260.36z"/>
			
				<linearGradient id="SVGID_00000183224871540214596690000006739400930603599522_" gradientUnits="userSpaceOnUse" x1="399.9985" y1="542.6574" x2="399.9985" y2="243.3214">
				<stop  offset="4.273500e-03" style="stop-color:#FBFBFB"/>
				<stop  offset="1" style="stop-color:#969696"/>
			</linearGradient>
			<path style="opacity:0.3;fill:url(#SVGID_00000183224871540214596690000006739400930603599522_);" d="M492.65,290.39
				c-63.89,9.68-128.4,14.61-192.99,16.02c-31.59,0.69-63.27,1.16-94.87,1.16c-5.29,0-10.59-0.07-15.87-0.23v128.48
				c5.46-0.03,10.93-0.14,16.39-0.33c29.89-1.03,59.67-3.95,89.38-7.32c57.63-6.54,115.23-13.93,171.91-26.49
				c49.89-11.05,98.51-26,144.48-47.95v-89.21C572.23,275.58,532.73,284.32,492.65,290.39z"/>
			<g>
				<g>
					<rect x="538.29" y="392.18" class="st12" width="46.86" height="4.08"/>
					
						<linearGradient id="SVGID_00000061450329771554307220000007339364419979052175_" gradientUnits="userSpaceOnUse" x1="561.7158" y1="400.1895" x2="561.7158" y2="404.2656">
						<stop  offset="0" style="stop-color:#2E302F"/>
						<stop  offset="1" style="stop-color:#1C1E1D"/>
					</linearGradient>
					
						<rect x="538.29" y="400.19" style="fill:url(#SVGID_00000061450329771554307220000007339364419979052175_);" width="46.86" height="4.08"/>
					<rect x="538.29" y="408.2" class="st12" width="46.86" height="4.08"/>
					
						<linearGradient id="SVGID_00000112592982746595141090000010217419178451722628_" gradientUnits="userSpaceOnUse" x1="561.7158" y1="416.2129" x2="561.7158" y2="420.2871">
						<stop  offset="0" style="stop-color:#2E302F"/>
						<stop  offset="1" style="stop-color:#1C1E1D"/>
					</linearGradient>
					
						<rect x="538.29" y="416.21" style="fill:url(#SVGID_00000112592982746595141090000010217419178451722628_);" width="46.86" height="4.07"/>
					
						<linearGradient id="SVGID_00000023968194760511920610000004687581813707455679_" gradientUnits="userSpaceOnUse" x1="561.7158" y1="424.2227" x2="561.7158" y2="428.3008">
						<stop  offset="0" style="stop-color:#2E302F"/>
						<stop  offset="1" style="stop-color:#1C1E1D"/>
					</linearGradient>
					
						<rect x="538.29" y="424.22" style="fill:url(#SVGID_00000023968194760511920610000004687581813707455679_);" width="46.86" height="4.08"/>
					<rect x="538.29" y="432.23" class="st12" width="46.86" height="4.08"/>
					
						<linearGradient id="SVGID_00000006668327556015611650000002199242984556769667_" gradientUnits="userSpaceOnUse" x1="561.7158" y1="440.2461" x2="561.7158" y2="444.3213">
						<stop  offset="0" style="stop-color:#2E302F"/>
						<stop  offset="1" style="stop-color:#1C1E1D"/>
					</linearGradient>
					
						<rect x="538.29" y="440.25" style="fill:url(#SVGID_00000006668327556015611650000002199242984556769667_);" width="46.86" height="4.08"/>
					<rect x="538.29" y="448.26" class="st12" width="46.86" height="4.08"/>
					
						<linearGradient id="SVGID_00000001627458628980840460000002994373645715900075_" gradientUnits="userSpaceOnUse" x1="561.7158" y1="456.2676" x2="561.7158" y2="460.3457">
						<stop  offset="0" style="stop-color:#2E302F"/>
						<stop  offset="1" style="stop-color:#1C1E1D"/>
					</linearGradient>
					
						<rect x="538.29" y="456.27" style="fill:url(#SVGID_00000001627458628980840460000002994373645715900075_);" width="46.86" height="4.08"/>
					<rect x="538.29" y="464.28" class="st12" width="46.86" height="4.08"/>
					
						<linearGradient id="SVGID_00000031189718201115771820000014305772468550118025_" gradientUnits="userSpaceOnUse" x1="561.7158" y1="472.291" x2="561.7158" y2="476.3662">
						<stop  offset="0" style="stop-color:#2E302F"/>
						<stop  offset="1" style="stop-color:#1C1E1D"/>
					</linearGradient>
					
						<rect x="538.29" y="472.29" style="fill:url(#SVGID_00000031189718201115771820000014305772468550118025_);" width="46.86" height="4.08"/>
					<rect x="538.29" y="480.3" class="st12" width="46.86" height="4.08"/>
					
						<linearGradient id="SVGID_00000019675854516753177480000007408560155137956236_" gradientUnits="userSpaceOnUse" x1="561.7158" y1="490.7334" x2="561.7158" y2="496.8486">
						<stop  offset="0" style="stop-color:#2E302F"/>
						<stop  offset="1" style="stop-color:#1C1E1D"/>
					</linearGradient>
					
						<rect x="538.29" y="490.73" style="fill:url(#SVGID_00000019675854516753177480000007408560155137956236_);" width="46.86" height="6.12"/>
				</g>
				<g>
					
						<linearGradient id="SVGID_00000088826187862791765540000002401851390030669733_" gradientUnits="userSpaceOnUse" x1="526.9297" y1="387.1479" x2="593.1699" y2="387.1479">
						<stop  offset="0" style="stop-color:#2E302F"/>
						<stop  offset="1" style="stop-color:#1C1E1D"/>
					</linearGradient>
					<path style="fill:url(#SVGID_00000088826187862791765540000002401851390030669733_);" d="M585.03,506.87h-49.96
						c-4.49,0-8.14-3.62-8.14-8.08V275.51c0-4.46,3.65-8.09,8.14-8.09h49.96c4.49,0,8.14,3.63,8.14,8.09v223.27
						C593.17,503.24,589.52,506.87,585.03,506.87z M535.07,268.73c-3.76,0-6.82,3.04-6.82,6.78v223.27c0,3.74,3.06,6.77,6.82,6.77
						h49.96c3.76,0,6.82-3.04,6.82-6.77V275.51c0-3.74-3.06-6.78-6.82-6.78H535.07z"/>
				</g>
				<g>
					<path class="st21" d="M581.41,295.13c4.98,11.82-0.56,25.43-12.37,30.42c-11.81,4.98-25.43-0.56-30.41-12.37
						c-4.98-11.81,0.56-25.43,12.37-30.41C562.81,277.78,576.43,283.32,581.41,295.13z"/>
					
						<linearGradient id="SVGID_00000132048039837971998810000016015110647529663136_" gradientUnits="userSpaceOnUse" x1="501.6734" y1="370.2609" x2="548.106" y2="370.2609" gradientTransform="matrix(0.9214 -0.3886 0.3886 0.9214 -66.1035 163.5963)">
						<stop  offset="0" style="stop-color:#2E302F"/>
						<stop  offset="1" style="stop-color:#1C1E1D"/>
					</linearGradient>
					<path style="fill:url(#SVGID_00000132048039837971998810000016015110647529663136_);" d="M582.8,291.76
						c4.98,11.81-0.55,25.43-12.37,30.41c-11.81,4.98-25.43-0.56-30.41-12.37c-4.98-11.82,0.55-25.43,12.37-30.41
						C564.21,274.41,577.82,279.95,582.8,291.76z"/>
					<path class="st1" d="M579.79,293.03c4.28,10.15-0.48,21.85-10.63,26.13c-10.15,4.28-21.85-0.48-26.13-10.63
						c-4.28-10.15,0.48-21.85,10.63-26.13C563.81,278.12,575.51,282.88,579.79,293.03z"/>
					
						<linearGradient id="SVGID_00000023242471781403477550000011840033301648365461_" gradientUnits="userSpaceOnUse" x1="504.3732" y1="345.6403" x2="546.8812" y2="396.6491" gradientTransform="matrix(0.9214 -0.3886 0.3886 0.9214 -66.1035 163.5963)">
						<stop  offset="0" style="stop-color:#D7D7D7"/>
						<stop  offset="1" style="stop-color:#969696"/>
					</linearGradient>
					<path style="opacity:0.7;fill:url(#SVGID_00000023242471781403477550000011840033301648365461_);" d="M577.38,294.05
						c3.72,8.82-0.42,18.98-9.23,22.7c-8.82,3.72-18.98-0.42-22.7-9.23c-3.72-8.82,0.42-18.98,9.23-22.7
						C563.5,281.09,573.66,285.23,577.38,294.05z"/>
					<path class="st24" d="M573.77,295.57c2.88,6.82-0.32,14.68-7.14,17.56c-6.82,2.88-14.69-0.32-17.56-7.14
						c-2.88-6.82,0.32-14.69,7.14-17.56C563.03,285.55,570.89,288.75,573.77,295.57z"/>
					
						<linearGradient id="SVGID_00000124160635436677801260000014585033242134997126_" gradientUnits="userSpaceOnUse" x1="525.7072" y1="347.0428" x2="525.7072" y2="394.0323" gradientTransform="matrix(0.9214 -0.3886 0.3886 0.9214 -66.1035 163.5963)">
						<stop  offset="4.273500e-03" style="stop-color:#FBFBFB"/>
						<stop  offset="1" style="stop-color:#969696"/>
					</linearGradient>
					<polygon style="fill:url(#SVGID_00000124160635436677801260000014585033242134997126_);" points="572.42,315.31 565.64,318.16 
						551.15,283.82 557.93,280.96 					"/>
					
						<linearGradient id="SVGID_00000115502671243862029080000010392525402216853149_" gradientUnits="userSpaceOnUse" x1="501.6913" y1="371.1536" x2="522.0486" y2="371.1536" gradientTransform="matrix(0.9214 -0.3886 0.3886 0.9214 -66.1035 163.5963)">
						<stop  offset="0" style="stop-color:#2E302F;stop-opacity:0"/>
						<stop  offset="1" style="stop-color:#1C1E1D"/>
					</linearGradient>
					<path style="opacity:0.7;fill:url(#SVGID_00000115502671243862029080000010392525402216853149_);" d="M551.15,283.82
						l-10.84,26.64c3.88,8.48,12.29,13.55,21.12,13.55l3.46-7.64L551.15,283.82z"/>
				</g>
				<g>
					<path class="st21" d="M572.37,339.11c11.16,7.67,13.98,22.94,6.31,34.1c-7.67,11.16-22.94,13.98-34.1,6.31
						c-11.16-7.67-13.98-22.94-6.31-34.1C545.95,334.26,561.21,331.44,572.37,339.11z"/>
					
						<linearGradient id="SVGID_00000164488257225822373860000005288462004478981815_" gradientUnits="userSpaceOnUse" x1="383.388" y1="480.1342" x2="432.4237" y2="480.1342" gradientTransform="matrix(0.5666 -0.824 0.824 0.5666 -63.7951 419.5917)">
						<stop  offset="0" style="stop-color:#2E302F"/>
						<stop  offset="1" style="stop-color:#1C1E1D"/>
					</linearGradient>
					<path style="fill:url(#SVGID_00000164488257225822373860000005288462004478981815_);" d="M576.85,335.32
						c11.16,7.67,13.98,22.94,6.31,34.1c-7.67,11.16-22.94,13.98-34.1,6.31c-11.16-7.67-13.98-22.94-6.31-34.1
						C550.42,330.47,565.69,327.65,576.85,335.32z"/>
					<path class="st1" d="M574.89,338.16c9.59,6.59,12.02,19.71,5.42,29.29c-6.59,9.59-19.71,12.01-29.29,5.42
						c-9.59-6.59-12.02-19.71-5.42-29.29C552.19,334,565.31,331.57,574.89,338.16z"/>
					
						<linearGradient id="SVGID_00000057857163530587474610000009632874159350605450_" gradientUnits="userSpaceOnUse" x1="386.2384" y1="454.1331" x2="431.131" y2="508.0033" gradientTransform="matrix(0.5666 -0.824 0.824 0.5666 -63.7951 419.5917)">
						<stop  offset="0" style="stop-color:#D7D7D7"/>
						<stop  offset="1" style="stop-color:#969696"/>
					</linearGradient>
					<path style="opacity:0.7;fill:url(#SVGID_00000057857163530587474610000009632874159350605450_);" d="M573.32,340.44
						c8.33,5.73,10.44,17.12,4.71,25.45c-5.73,8.33-17.13,10.43-25.45,4.71c-8.33-5.73-10.44-17.12-4.71-25.45
						C553.6,336.82,565,334.71,573.32,340.44z"/>
					<path class="st29" d="M570.98,343.85c6.44,4.43,8.07,13.25,3.64,19.69c-4.43,6.44-13.25,8.08-19.69,3.65
						c-6.44-4.43-8.08-13.25-3.65-19.69C555.72,341.05,564.54,339.42,570.98,343.85z"/>
					
						<linearGradient id="SVGID_00000036952703752268348220000001775545996408011706_" gradientUnits="userSpaceOnUse" x1="408.7689" y1="455.6131" x2="408.7689" y2="505.2408" gradientTransform="matrix(0.5666 -0.824 0.824 0.5666 -63.7951 419.5917)">
						<stop  offset="4.273500e-03" style="stop-color:#FBFBFB"/>
						<stop  offset="1" style="stop-color:#969696"/>
					</linearGradient>
					<polygon style="fill:url(#SVGID_00000036952703752268348220000001775545996408011706_);" points="581.01,362.18 576.61,368.58 
						544.17,346.27 548.57,339.87 					"/>
					
						<linearGradient id="SVGID_00000168100097376077037000000005274992964168839594_" gradientUnits="userSpaceOnUse" x1="383.4061" y1="481.0766" x2="404.9048" y2="481.0766" gradientTransform="matrix(0.5666 -0.824 0.824 0.5666 -63.7951 419.5917)">
						<stop  offset="0" style="stop-color:#2E302F;stop-opacity:0"/>
						<stop  offset="1" style="stop-color:#1C1E1D"/>
					</linearGradient>
					<path style="opacity:0.7;fill:url(#SVGID_00000168100097376077037000000005274992964168839594_);" d="M544.17,346.27
						l5.53,29.87c8.28,5.33,18.64,5.06,26.5,0.03l-1.27-8.77L544.17,346.27z"/>
				</g>
			</g>
			
				<linearGradient id="SVGID_00000157266581145539395480000014642227749885948849_" gradientUnits="userSpaceOnUse" x1="352.707" y1="260.1204" x2="352.707" y2="514.0529">
				<stop  offset="0" style="stop-color:#141615"/>
				<stop  offset="0.4283" style="stop-color:#282928"/>
				<stop  offset="1" style="stop-color:#484948"/>
			</linearGradient>
			<path style="fill:url(#SVGID_00000157266581145539395480000014642227749885948849_);" d="M504.9,483.2
				c0,15.46-12.17,27.99-27.18,27.99H227.7c-15.01,0-27.18-12.53-27.18-27.99V287.25c0-15.46,12.17-27.99,27.18-27.99h250.01
				c15.01,0,27.18,12.53,27.18,27.99V483.2z"/>
			<path class="st33" d="M498.88,479.32c0,14.85-11.69,26.88-26.11,26.88H232.64c-14.42,0-26.11-12.04-26.11-26.88v-188.2
				c0-14.85,11.69-26.89,26.11-26.89h240.13c14.42,0,26.11,12.04,26.11,26.89V479.32z"/>
			<path class="st34" d="M495.44,477.44c0,14.5-11.41,24.96-25.49,24.96H235.47c-14.08,0-25.49-10.47-25.49-24.96V293.67
				c0-14.5,11.41-26.25,25.49-26.25h234.48c14.08,0,25.49,11.75,25.49,26.25V477.44z"/>
			<path class="st35" d="M469.95,267.42h-19.42V502.4h19.42c14.08,0,25.49-10.47,25.49-24.96V293.67
				C495.44,279.17,484.03,267.42,469.95,267.42z"/>
			<rect x="247.52" y="267.42" class="st36" width="41.71" height="234.98"/>
			<rect x="289.34" y="267.42" class="st37" width="41.71" height="234.98"/>
			<rect x="331.17" y="267.42" class="st38" width="41.71" height="234.98"/>
			<rect x="372.99" y="267.42" class="st39" width="41.71" height="234.98"/>
			<rect x="414.81" y="267.42" class="st40" width="41.71" height="234.98"/>
			
				<linearGradient id="SVGID_00000062184362003645624660000016368564680083424446_" gradientUnits="userSpaceOnUse" x1="352.707" y1="417.5205" x2="352.707" y2="267.8567">
				<stop  offset="0" style="stop-color:#FBFBFB;stop-opacity:0.5"/>
				<stop  offset="1" style="stop-color:#FBFBFB;stop-opacity:0"/>
			</linearGradient>
			<path style="opacity:0.8;fill:url(#SVGID_00000062184362003645624660000016368564680083424446_);" d="M232,383.4
				c36.44,7.81,73.26,12.42,110.52,13.57c36.48,1.13,73.4,0.56,109.4-5.97c12.41-2.25,24.57-5.16,36.5-8.66v-85.55
				c0-13.79-10.85-24.96-24.24-24.96H241.24c-13.39,0-24.24,11.17-24.24,24.96v83.19C222.18,381.32,227.32,382.4,232,383.4z"/>
		</g>
	</g>
</g>
</svg>
